<svg width="200" height="216" viewBox="0 0 200 216" fill="none" xmlns="http://www.w3.org/2000/svg">
<circle cx="12.8" cy="38.5629" r="12.8" fill="white"/>
<path d="M70.5458 65.3978L112.046 89.3978C120.446 94.1978 120.446 106.298 112.046 111.198L70.5458 135.198C62.1458 139.998 51.7458 133.998 51.7458 124.298V76.2978C51.7458 66.5978 62.1458 60.4978 70.5458 65.3978Z" fill="white"/>
<path d="M28.7151 82.5477C28.7151 74.3464 22.3464 67.7623 14.4134 67.7623C6.48045 67.7623 0 74.3464 0 82.5477V178.653C0 193.669 5.92179 205.798 16.2011 211.92C20.7821 214.692 25.9218 215.963 31.2849 215.963C37.9888 215.963 45.1397 213.884 52.1788 209.725L182.57 131.871C193.408 125.402 200 113.736 200 100.798C200 87.8612 193.52 76.1946 182.682 69.726L70.1676 2.03644C63.352 -2.12196 54.5251 0.303772 50.6145 7.34995C46.5922 14.3961 48.9385 23.5215 55.7542 27.5644L128.492 71.3431C137.765 78.0427 143.24 89.0163 143.24 100.798C143.24 112.003 138.436 122.283 130.056 128.983L77.2067 160.518C67.0391 165.138 55.6425 164.561 45.8101 158.785C35.0838 152.432 28.9385 141.112 28.7151 128.406L28.7151 82.5477Z" fill="white"/>
</svg>
